<?xml version="1.0" encoding="iso-8859-1"?>
<!-- Generator: Adobe Illustrator 19.0.0, SVG Export Plug-In . SVG Version: 6.00 Build 0)  -->
<svg version="1.1" id="Layer_1" xmlns="http://www.w3.org/2000/svg" xmlns:xlink="http://www.w3.org/1999/xlink" x="0px" y="0px"
	 viewBox="0 0 512.003 512.003" style="enable-background:new 0 0 512.003 512.003;" xml:space="preserve">
<g>
	<g>
		<path d="M509.398,282.951c-7.784-6.795-12.249-16.619-12.249-26.951s4.464-20.157,12.248-26.951
			c1.919-1.675,2.872-4.198,2.54-6.723c-0.334-2.525-1.908-4.715-4.195-5.835l-0.079-0.04c-9.257-4.557-16.094-12.888-18.759-22.855
			c-2.664-9.967-0.897-20.598,4.828-29.135l0.061-0.089c1.432-2.112,1.672-4.809,0.701-7.168s-3.097-4.082-5.601-4.574
			c-10.128-1.99-18.901-8.257-24.069-17.193c-5.168-8.935-6.224-19.665-2.868-29.526c0.811-2.406,0.353-5.057-1.197-7.069
			c-1.549-2.01-3.99-3.115-6.551-2.944c-10.291,0.693-20.403-3.093-27.706-10.396c-7.304-7.304-11.093-17.403-10.397-27.716
			c0.178-2.541-0.96-4.99-2.979-6.544c-2.019-1.554-4.715-1.983-7.123-1.163c-9.774,3.325-20.5,2.269-29.436-2.899
			c-8.935-5.168-15.203-13.941-17.206-24.135c-0.489-2.496-2.194-4.584-4.542-5.56c-2.352-0.977-5.032-0.714-7.146,0.7l-0.098,0.065
			c-8.568,5.748-19.201,7.514-29.167,4.849c-9.967-2.665-18.298-9.502-22.862-18.772l-0.047-0.094
			c-1.126-2.277-3.316-3.841-5.837-4.169c-2.523-0.327-5.037,0.626-6.708,2.54c-6.795,7.784-16.619,12.25-26.953,12.25
			c-10.332,0-20.157-4.465-26.951-12.25c-1.675-1.919-4.2-2.87-6.724-2.538c-2.524,0.334-4.714,1.908-5.835,4.195l-0.039,0.08
			c-4.557,9.257-12.888,16.093-22.855,18.758c-9.967,2.665-20.598,0.897-29.184-4.86l-0.089-0.06
			c-2.115-1.409-4.801-1.634-7.147-0.657c-2.345,0.976-4.056,3.096-4.546,5.589c-1.99,10.128-8.258,18.901-17.193,24.069
			c-8.934,5.167-19.664,6.225-29.517,2.872c-2.405-0.813-5.058-0.359-7.075,1.191c-2.013,1.55-3.118,4.017-2.947,6.552
			c0.697,10.305-3.093,20.404-10.397,27.708c-7.303,7.304-17.406,11.09-27.725,10.396c-2.527-0.173-4.985,0.965-6.537,2.983
			c-1.552,2.018-1.981,4.71-1.162,7.12c3.326,9.773,2.269,20.502-2.898,29.438c-5.169,8.935-13.941,15.202-24.126,17.203
			c-2.507,0.488-4.603,2.202-5.577,4.562c-0.974,2.361-0.699,5.054,0.735,7.168l0.039,0.057c5.747,8.568,7.514,19.199,4.849,29.167
			c-2.665,9.967-9.503,18.298-18.773,22.862l-0.094,0.047c-2.277,1.126-3.841,3.316-4.168,5.836
			c-0.326,2.52,0.626,5.037,2.541,6.708c7.784,6.795,12.25,16.618,12.25,26.951c0,10.333-4.465,20.157-12.25,26.951
			c-1.915,1.671-2.867,4.187-2.541,6.708s1.891,4.71,4.168,5.837l0.108,0.054c9.256,4.557,16.092,12.887,18.757,22.854
			c2.665,9.967,0.898,20.599-4.849,29.17l-0.06,0.088c-1.416,2.114-1.648,4.803-0.672,7.154c0.974,2.351,3.096,4.065,5.594,4.556
			c10.128,1.99,18.901,8.257,24.069,17.192c5.169,8.935,6.225,19.665,2.904,29.423c-0.852,2.412-0.419,5.091,1.128,7.128
			c1.546,2.037,4.023,3.164,6.582,2.987c10.321-0.697,20.405,3.094,27.708,10.397c7.304,7.303,11.093,17.402,10.397,27.715
			c-0.178,2.541,0.96,4.99,2.979,6.544c2.018,1.555,4.714,1.984,7.122,1.163c9.775-3.326,20.501-2.269,29.436,2.899
			c8.935,5.169,15.203,13.941,17.206,24.136c0.489,2.496,2.194,4.584,4.542,5.56c2.352,0.977,5.033,0.714,7.146-0.7l0.098-0.065
			c8.569-5.747,19.201-7.515,29.168-4.849c9.967,2.665,18.298,9.502,22.862,18.772l0.047,0.094c1.126,2.278,3.316,3.842,5.837,4.169
			c2.518,0.326,5.036-0.626,6.708-2.54c6.795-7.784,16.618-12.249,26.951-12.249c10.333,0,20.157,4.465,26.952,12.249
			c1.455,1.666,3.548,2.604,5.727,2.604c0.331,0,0.663-0.021,0.995-0.065c2.524-0.334,4.715-1.908,5.836-4.195l0.039-0.08
			c4.557-9.257,12.888-16.094,22.855-18.758c9.964-2.663,20.598-0.897,29.184,4.86l0.089,0.06c2.115,1.41,4.8,1.632,7.147,0.658
			c2.345-0.976,4.056-3.096,4.546-5.59c1.99-10.128,8.258-18.901,17.192-24.069c8.936-5.167,19.666-6.224,29.47-2.887
			c2.412,0.834,5.076,0.388,7.102-1.161c2.025-1.548,3.139-4.023,2.968-6.568c-0.697-10.305,3.093-20.404,10.397-27.707
			c7.304-7.304,17.395-11.097,27.706-10.397c2.537,0.178,4.994-0.955,6.552-2.974c1.556-2.018,1.987-4.714,1.165-7.127
			c-3.324-9.772-2.268-20.501,2.899-29.436c5.169-8.935,13.941-15.203,24.126-17.204c2.504-0.487,4.597-2.197,5.573-4.554
			c0.976-2.356,0.706-5.046-0.72-7.161l-0.049-0.073c-5.748-8.569-7.515-19.201-4.849-29.169
			c2.665-9.967,9.503-18.297,18.773-22.861l0.094-0.047c2.277-1.126,3.842-3.316,4.168-5.837
			C512.265,287.138,511.312,284.622,509.398,282.951z M474.213,314.474c-2.935,10.975-2.099,22.516,2.216,32.835
			c-10.336,4.243-19.084,11.807-24.771,21.639c-5.684,9.827-7.879,21.18-6.394,32.282c-11.08,1.432-21.486,6.482-29.517,14.513
			c-8.027,8.026-13.075,18.422-14.509,29.511c-11.086-1.484-22.449,0.71-32.288,6.401c-9.818,5.679-17.376,14.41-21.63,24.773
			c-10.318-4.316-21.863-5.154-32.843-2.218c-10.983,2.936-20.571,9.427-27.361,18.325c-8.844-6.814-19.762-10.595-31.113-10.595
			c-0.001,0,0,0-0.001,0c-11.35,0-22.271,3.781-31.114,10.595c-6.787-8.893-16.376-15.386-27.361-18.323
			c-10.977-2.935-22.524-2.097-32.835,2.214c-4.244-10.335-11.807-19.082-21.639-24.768c-9.825-5.683-21.172-7.878-32.281-6.392
			c-1.432-11.082-6.482-21.487-14.512-29.52c-8.027-8.027-18.422-13.075-29.511-14.509c1.482-11.083-0.71-22.449-6.401-32.287
			c-5.68-9.819-14.413-17.377-24.772-21.631c4.315-10.316,5.153-21.863,2.218-32.844c-2.938-10.986-9.434-20.577-18.323-27.361
			c6.814-8.844,10.594-19.763,10.594-31.113c0-11.351-3.781-22.271-10.595-31.114c8.893-6.787,15.386-16.377,18.323-27.361
			c2.934-10.972,2.098-22.509-2.218-32.833c10.335-4.243,19.085-11.807,24.772-21.64c5.684-9.828,7.879-21.18,6.394-32.283
			c11.082-1.432,21.485-6.481,29.518-14.512c8.025-8.026,13.074-18.419,14.508-29.511c11.078,1.482,22.449-0.71,32.287-6.399
			c9.819-5.679,17.377-14.411,21.631-24.773c10.317,4.316,21.862,5.154,32.844,2.218c10.983-2.936,20.572-9.429,27.36-18.325
			c8.845,6.814,19.763,10.595,31.115,10.595c11.35,0,22.271-3.781,31.114-10.595c6.786,8.893,16.376,15.386,27.36,18.324
			c10.981,2.935,22.524,2.097,32.835-2.214c4.244,10.335,11.807,19.083,21.639,24.769c9.83,5.686,21.183,7.88,32.282,6.394
			c1.432,11.081,6.483,21.485,14.513,29.517c8.027,8.027,18.42,13.075,29.51,14.508c-1.483,11.083,0.71,22.448,6.401,32.286
			c5.685,9.831,14.433,17.395,24.769,21.639c-4.312,10.314-5.149,21.858-2.214,32.835c2.937,10.987,9.432,20.578,18.321,27.362
			c-6.813,8.844-10.593,19.762-10.593,31.113c0,11.351,3.781,22.272,10.595,31.115C483.642,293.901,477.149,303.49,474.213,314.474z
			"/>
	</g>
</g>
<g>
	<g>
		<path d="M449.601,283.669c-1.304-1.684-3.254-2.745-5.378-2.922c-12.747-1.07-22.733-11.939-22.733-24.745
			c0-12.806,9.985-23.678,22.733-24.747c2.123-0.177,4.074-1.238,5.378-2.922c1.304-1.684,1.841-3.839,1.482-5.937
			c-14.111-82.475-79.004-147.367-161.478-161.478c-2.1-0.359-4.252,0.178-5.937,1.482c-1.683,1.304-2.743,3.254-2.922,5.376
			c-1.071,12.747-11.939,22.733-24.745,22.733c-12.807,0-23.677-9.985-24.745-22.732c-0.178-2.123-1.238-4.073-2.922-5.377
			c-1.684-1.304-3.837-1.842-5.937-1.482C139.922,75.029,75.029,139.922,60.919,222.396c-0.359,2.1,0.178,4.253,1.482,5.937
			s3.255,2.745,5.378,2.922c12.746,1.07,22.732,11.939,22.732,24.745c0,12.806-9.986,23.676-22.732,24.745
			c-2.123,0.177-4.074,1.238-5.378,2.922s-1.841,3.837-1.482,5.937c3.527,20.621,10.287,40.454,20.087,58.95
			c1.966,3.71,6.568,5.126,10.28,3.158c3.711-1.966,5.125-6.569,3.158-10.28c-7.886-14.88-13.637-30.703-17.139-47.124
			c16.459-5.047,28.413-20.519,28.413-38.308c0-17.789-11.954-33.261-28.413-38.308c14.973-70.248,70.143-125.419,140.389-140.39
			c5.047,16.459,20.518,28.414,38.308,28.414c17.789,0,33.261-11.955,38.308-28.414c70.245,14.973,125.416,70.143,140.388,140.388
			c-16.458,5.047-28.413,20.519-28.413,38.308s11.955,33.261,28.413,38.308c-14.973,70.246-70.143,125.417-140.388,140.388
			c-5.048-16.458-20.52-28.413-38.308-28.413c-17.791,0-33.264,11.955-38.309,28.417c-44.802-9.518-83.914-35.232-110.74-72.982
			c-2.43-3.423-7.178-4.227-10.603-1.795c-3.423,2.432-4.226,7.18-1.794,10.603c14.947,21.037,33.559,38.722,55.315,52.569
			c22.217,14.138,46.617,23.555,72.525,27.988c2.1,0.361,4.253-0.178,5.937-1.482s2.744-3.255,2.922-5.377
			c1.07-12.747,11.938-22.732,24.745-22.732c12.806,0,23.676,9.986,24.745,22.733c0.178,2.122,1.239,4.073,2.923,5.377
			c1.341,1.039,2.981,1.592,4.655,1.592c0.427,0,0.856-0.036,1.283-0.108c82.474-14.11,147.367-79.003,161.478-161.478
			C451.442,287.507,450.905,285.353,449.601,283.669z"/>
	</g>
</g>
<g>
	<g>
		<path d="M256.001,221.952c-18.775,0-34.047,15.273-34.047,34.047c0,18.775,15.273,34.047,34.047,34.047
			c18.774,0,34.047-15.274,34.047-34.047S274.775,221.952,256.001,221.952z M256.001,274.839c-10.388,0-18.84-8.451-18.84-18.84
			s8.452-18.84,18.84-18.84c10.388,0,18.839,8.451,18.839,18.84S266.389,274.839,256.001,274.839z"/>
	</g>
</g>
<g>
	<g>
		<path d="M355.986,165.175c-2.823-3.106-7.631-3.337-10.742-0.513c-3.107,2.825-3.337,7.633-0.512,10.742
			c20.08,22.092,31.138,50.715,31.138,80.596c0,66.097-53.773,119.87-119.869,119.87c-66.097,0-119.87-53.773-119.87-119.87
			s53.773-119.87,119.87-119.87c24.021,0,47.195,7.078,67.015,20.468c3.481,2.351,8.206,1.436,10.557-2.044
			c2.35-3.481,1.436-8.207-2.045-10.558c-22.342-15.095-48.46-23.073-75.528-23.073c-74.482,0-135.078,60.595-135.078,135.078
			s60.595,135.078,135.078,135.078S391.078,330.482,391.078,256C391.078,222.328,378.616,190.072,355.986,165.175z"/>
	</g>
</g>
<g>
	<g>
		<path d="M346.187,248.395c-4.198,0-7.594,3.407-7.594,7.604c-0.01,0-0.01,0-0.01,0c0,0.03,0,0.071,0,0.101c0,0.02,0,0.051,0,0.071
			c0,0.01,0,0.01,0,0.01c-0.011,4.197,3.396,7.604,7.593,7.614h0.011c4.197,0,7.593-3.396,7.604-7.584c0-0.041,0-0.081,0-0.112
			c0-0.03,0-0.071,0-0.101C353.791,251.801,350.394,248.395,346.187,248.395z"/>
	</g>
</g>
<g>
	<g>
		<path d="M302.885,333.437c-1.877-3.761-6.439-5.292-10.201-3.427s-5.292,6.438-3.427,10.199c1.328,2.666,4.025,4.218,6.813,4.218
			c1.146,0,2.292-0.253,3.386-0.791h-0.01C303.21,341.761,304.751,337.199,302.885,333.437z"/>
	</g>
</g>
<g>
	<g>
		<path d="M327.673,311.274c-3.091-2.839-7.907-2.626-10.736,0.477c-2.839,3.092-2.626,7.908,0.466,10.737
			c1.46,1.338,3.305,1.997,5.14,1.997c2.058,0,4.106-0.831,5.607-2.474C330.99,318.919,330.777,314.113,327.673,311.274z"/>
	</g>
</g>
<g>
	<g>
		<path d="M342.821,281.67c-3.914-1.521-8.324,0.406-9.845,4.319c-1.531,3.914,0.405,8.324,4.319,9.855
			c0.912,0.355,1.845,0.517,2.758,0.517c3.042,0,5.922-1.835,7.087-4.846C348.67,287.611,346.735,283.201,342.821,281.67z"/>
	</g>
</g>
<g>
	<g>
		<path d="M347.211,220.666c-1.511-3.913-5.921-5.86-9.834-4.339c-3.913,1.521-5.86,5.921-4.339,9.834
			c1.166,3.011,4.045,4.856,7.097,4.856c0.912,0.01,1.836-0.162,2.737-0.507C346.785,228.989,348.732,224.589,347.211,220.666z"/>
	</g>
</g>
<g>
	<g>
		<path d="M328.283,190.128c-2.829-3.102-7.645-3.325-10.748-0.497c-3.102,2.829-3.324,7.634-0.496,10.737
			c1.5,1.653,3.559,2.484,5.627,2.484c1.825,0,3.659-0.659,5.12-1.987C330.887,198.036,331.111,193.23,328.283,190.128z"/>
	</g>
</g>
<g>
	<g>
		<path d="M206.142,321.849c-3.346-2.545-8.111-1.886-10.656,1.46c-2.535,3.346-1.876,8.121,1.47,10.656
			c1.369,1.044,2.981,1.541,4.584,1.541c2.302,0,4.573-1.034,6.072-3.011C210.146,329.149,209.488,324.384,206.142,321.849z"/>
	</g>
</g>
<g>
	<g>
		<path d="M168.741,231.859c-4.126-0.771-8.101,1.957-8.871,6.083c-0.771,4.126,1.947,8.101,6.083,8.871
			c0.466,0.081,0.943,0.132,1.399,0.132c3.589,0,6.783-2.555,7.472-6.215C175.585,236.603,172.868,232.629,168.741,231.859z"/>
	</g>
</g>
<g>
	<g>
		<path d="M271.751,345.147c-0.376-4.187-4.068-7.269-8.254-6.894c-4.187,0.375-7.269,4.066-6.894,8.253
			c0.355,3.954,3.67,6.925,7.563,6.925c0.233,0,0.466-0.01,0.689-0.03C269.043,353.025,272.125,349.325,271.751,345.147z"/>
	</g>
</g>
<g>
	<g>
		<path d="M183.361,201.99c-3.569-2.21-8.253-1.125-10.473,2.443c-2.219,3.569-1.124,8.253,2.443,10.473
			c1.247,0.781,2.637,1.146,4.005,1.146c2.545,0,5.029-1.267,6.468-3.589C188.025,208.895,186.93,204.211,183.361,201.99z"/>
	</g>
</g>
<g>
	<g>
		<path d="M185.713,299.392c-2.21-3.579-6.894-4.684-10.463-2.474c-3.579,2.21-4.684,6.894-2.473,10.473
			c1.439,2.322,3.933,3.599,6.478,3.599c1.369,0,2.748-0.365,3.995-1.135C186.818,307.645,187.923,302.961,185.713,299.392z"/>
	</g>
</g>
<g>
	<g>
		<path d="M207.765,179.401c-2.525-3.356-7.3-4.015-10.646-1.49c-3.357,2.535-4.025,7.3-1.49,10.656
			c1.5,1.977,3.772,3.021,6.072,3.021c1.602,0,3.204-0.507,4.584-1.541C209.63,187.522,210.299,182.747,207.765,179.401z"/>
	</g>
</g>
<g>
	<g>
		<path d="M174.794,271.095c-0.01,0-0.01,0-0.01,0c-0.76-4.126-4.725-6.864-8.85-6.103c-4.127,0.77-6.865,4.735-6.104,8.861
			c0.679,3.66,3.883,6.225,7.472,6.225c0.456,0,0.923-0.041,1.389-0.122C172.817,279.186,175.554,275.221,174.794,271.095z"/>
	</g>
</g>
<g>
	<g>
		<path d="M233.275,335.425c-4.036-1.156-8.255,1.186-9.4,5.221c-1.156,4.035,1.186,8.243,5.221,9.398
			c0.699,0.203,1.399,0.294,2.089,0.294c3.316,0,6.358-2.18,7.31-5.515C239.652,340.778,237.309,336.57,233.275,335.425z"/>
	</g>
</g>
<g>
	<g>
		<path d="M299.631,168.452c-3.762-1.876-8.325-0.345-10.201,3.407c-1.876,3.761-0.345,8.324,3.407,10.199
			c1.084,0.547,2.251,0.801,3.386,0.801c2.798,0,5.485-1.541,6.813-4.208C304.913,174.9,303.392,170.327,299.631,168.452z"/>
	</g>
</g>
<g>
	<g>
		<path d="M238.677,167.144c-1.135-4.045-5.344-6.387-9.389-5.242c-4.034,1.146-6.377,5.343-5.242,9.388
			c0.954,3.346,4.006,5.526,7.31,5.526c0.69,0,1.389-0.091,2.079-0.284C237.48,175.386,239.823,171.179,238.677,167.144z"/>
	</g>
</g>
<g>
	<g>
		<path d="M265.058,158.617c-4.177-0.385-7.878,2.697-8.262,6.874c-0.386,4.187,2.686,7.888,6.873,8.273
			c0.233,0.02,0.465,0.03,0.7,0.03c3.893,0,7.208-2.96,7.563-6.904C272.317,162.703,269.245,159.003,265.058,158.617z"/>
	</g>
</g>
<g>
</g>
<g>
</g>
<g>
</g>
<g>
</g>
<g>
</g>
<g>
</g>
<g>
</g>
<g>
</g>
<g>
</g>
<g>
</g>
<g>
</g>
<g>
</g>
<g>
</g>
<g>
</g>
<g>
</g>
</svg>
